<?xml version="1.0" standalone="no"?>
<!DOCTYPE svg PUBLIC "-//W3C//DTD SVG 20010904//EN"
 "http://www.w3.org/TR/2001/REC-SVG-20010904/DTD/svg10.dtd">
<svg version="1.0" xmlns="http://www.w3.org/2000/svg"
 width="16.000000pt" height="16.000000pt" viewBox="0 0 16.000000 16.000000"
 preserveAspectRatio="xMidYMid meet">

<g transform="translate(0.000000,16.000000) scale(0.100000,-0.100000)"
fill="#fff" stroke="none">
<path d="M110 147 c13 -7 30 -24 37 -37 9 -18 13 -20 13 -7 0 9 -9 26 -20 37
-11 11 -28 20 -37 20 -13 0 -11 -4 7 -13z"/>
<path d="M12 128 c-22 -22 -13 -63 21 -96 35 -34 76 -42 96 -19 15 19 -18 50
-39 37 -22 -13 -52 17 -40 40 13 24 -20 56 -38 38z m29 -15 c13 -16 12 -17 -3
-4 -10 7 -18 15 -18 17 0 8 8 3 21 -13z m-11 -25 c0 -16 41 -58 56 -58 7 0 16
-5 19 -10 14 -23 -39 -8 -66 19 -27 27 -42 80 -19 66 6 -3 10 -11 10 -17z m91
-55 c13 -16 12 -17 -3 -4 -10 7 -18 15 -18 17 0 8 8 3 21 -13z"/>
<path d="M113 118 c12 -13 24 -19 25 -15 5 11 -18 37 -34 37 -9 0 -5 -8 9 -22z"/>
<path d="M102 106 c7 -8 15 -12 17 -11 5 6 -10 25 -20 25 -5 0 -4 -6 3 -14z"/>
</g>
</svg>
