<svg id="Capa_1" enable-background="new 0 0 419.176 419.176" height="512" viewBox="0 0 419.176 419.176" width="512" fill="#2b97a3" xmlns="http://www.w3.org/2000/svg"><path d="m104.794 419.176c-3.333 0-6.652-1.111-9.371-3.289-4.883-3.918-6.813-10.468-4.825-16.418l23.362-70.116h-98.99c-8.274-.001-14.97-6.697-14.97-14.971v-299.411c0-8.275 6.696-14.971 14.971-14.971h389.234c8.275 0 14.971 6.696 14.971 14.971v299.411c0 8.275-6.696 14.971-14.971 14.971h-145.554l-146.153 87.689c-2.383 1.432-5.043 2.133-7.704 2.134zm-74.853-119.765h104.794c4.81 0 9.327 2.31 12.149 6.213 2.807 3.903 3.582 8.933 2.047 13.494l-17.134 51.432 114.998-69.005c2.325-1.404 4.985-2.134 7.705-2.134h134.735v-269.47h-359.294z"/></svg>